<svg width="218" height="49" viewBox="0 0 218 49" fill="none" xmlns="http://www.w3.org/2000/svg">
<path fill-rule="evenodd" clip-rule="evenodd" d="M4.86914 24.4583C4.86731 28.0673 3.96785 30.9905 2.85905 30.9905C1.74964 30.9905 0.84957 28.0649 0.847744 24.4601C0.84957 20.8511 1.74781 17.9268 2.85783 17.9268C3.96785 17.9274 4.87096 20.8517 4.86914 24.4583Z" fill="#A34308"/>
<path fill-rule="evenodd" clip-rule="evenodd" d="M29.8038 2.9043C38.9779 6.70072 45.3398 14.991 45.3398 24.6027C45.3423 34.2163 38.9779 42.5054 29.7995 46.3C35.0581 41.7649 38.5513 33.7402 38.5513 24.6033C38.5513 15.4665 35.0557 7.44242 29.8038 2.9043Z" fill="#A34308"/>
<path fill-rule="evenodd" clip-rule="evenodd" d="M23.5894 0.524414C27.8895 0.524414 31.3809 11.3521 31.3809 24.696C31.3809 38.0478 27.8901 48.8688 23.5864 48.87C21.4619 48.8688 19.5333 46.2216 18.1282 41.9333C16.939 44.8176 15.442 46.5412 13.8171 46.5412C9.94236 46.5424 6.79913 36.7978 6.80217 24.7797C6.79913 12.7621 9.93992 3.01574 13.8134 3.02059C15.4267 3.02059 16.9129 4.71685 18.0983 7.55932C19.5072 3.21587 21.446 0.52684 23.5894 0.524414ZM7.84221 24.7809C7.83916 31.5253 9.52427 36.9968 11.5995 36.9968C13.6759 36.9968 15.358 31.5247 15.358 24.7833C15.358 18.0353 13.6759 12.5656 11.5995 12.5632C9.52184 12.565 7.83977 18.0341 7.84221 24.7809ZM18.4513 8.46173C19.9088 12.4498 20.829 18.2809 20.829 24.7803C20.8296 31.2227 19.9259 37.0101 18.4915 40.9945C19.1913 41.94 19.963 42.4646 20.7724 42.4646C23.9381 42.4622 26.5014 34.5097 26.5014 24.696C26.5014 14.8871 23.9381 6.93103 20.7766 6.93103C19.9478 6.93285 19.1609 7.48109 18.4513 8.46173Z" fill="#A34308"/>
<path d="M62.4845 13.8132V13.7994C65.5397 13.7994 68.429 14.8878 70.613 17.0644C74.5944 21.0321 74.5944 28.7607 70.613 32.7149C68.4288 34.8778 65.5394 35.9662 62.4845 35.9662H56.9824V13.8137L62.4845 13.8132ZM62.4983 31.5158H62.5121C64.3369 31.5158 66.0235 31.0061 67.323 29.7111C68.6226 28.4161 69.134 26.7078 69.134 24.8755C69.134 23.057 68.6225 21.3487 67.3092 20.0399C66.0098 18.7312 64.2955 18.2215 62.4707 18.2215H61.4477V31.5161L62.4983 31.5158ZM75.2583 13.7582H88.6266V18.1942H79.7238V22.6441H86.401V27.0801H79.7238V31.5162H88.6266V35.966H79.7238H75.2585L75.2583 13.7582ZM90.7001 35.9657L90.6863 13.7307H97.93C100.073 13.7307 102.188 14.4746 103.722 16.0038C105.257 17.533 105.879 18.9658 105.879 21.1012V21.79C105.879 23.4432 105.409 24.6555 104.469 25.978C103.529 27.3006 102.741 27.6864 101.276 28.2374L106.308 35.966H100.861L95.1652 27.2866V35.966L90.7001 35.9657ZM95.1516 24.4211L98.345 24.4348C99.2713 24.4348 99.7413 24.2006 100.391 23.5531C101.041 22.9056 101.276 22.1617 101.276 21.2387C101.276 20.3294 101.041 19.7233 100.391 19.062C99.7413 18.4007 98.58 18.1665 97.6538 18.1665H95.1515L95.1516 24.4211ZM108.382 13.3448L119.248 28.1961L130.114 13.3448V35.9657H125.649V26.8045L119.248 35.6074L112.847 26.8045V35.9657H108.382L108.382 13.3448ZM139.901 28.6229H143.841L141.878 24.0077L139.901 28.6229ZM138.076 32.5491L138.049 32.5353C137.551 33.665 137.039 34.7809 136.528 35.9106H131.731L141.836 13.3447L151.969 35.9106H147.158C146.661 34.7947 146.163 33.665 145.665 32.5491H138.076L138.076 32.5491ZM153.67 13.7582H158.136V31.5163H167.038V35.9661H153.67L153.67 13.7582ZM168.697 13.7582H182.066V18.1942H173.163V22.6441H179.84V27.0801H173.163V31.5162H182.066V35.966H173.163H168.698L168.697 13.7582ZM184.139 35.9657L184.125 13.7307H191.369C193.512 13.7307 195.627 14.4746 197.162 16.0038C198.696 17.533 199.318 18.9658 199.318 21.1012V21.79C199.318 23.4432 198.848 24.6555 197.908 25.978C196.968 27.3006 196.18 27.6864 194.715 28.2374L199.747 35.966H194.3L188.604 27.2866V35.966L184.139 35.9657ZM188.591 24.4211L191.784 24.4348C192.71 24.4348 193.18 24.2006 193.83 23.5531C194.48 22.9056 194.715 22.1617 194.715 21.2387C194.715 20.3294 194.48 19.7233 193.83 19.062C193.18 18.4007 192.019 18.1665 191.093 18.1665H188.591L188.591 24.4211ZM207.115 13.7582H211.581H217.152V18.1942H211.581V35.9657H207.115V18.1942H201.544V13.7582H207.115Z" fill="#20596C"/>
</svg>
