<svg xmlns="http://www.w3.org/2000/svg" viewBox="0 0 390 760" role="img" aria-labelledby="title desc">
  <title id="title">Tela ficticia de encaminhamento</title>
  <desc id="desc">Mockup ficticio da quinta etapa do fluxo DermAlert.</desc>
  <defs>
    <linearGradient id="bg" x1="0" x2="1" y1="0" y2="1">
      <stop offset="0" stop-color="#F9FDFF"/>
      <stop offset=".58" stop-color="#EEF9FC"/>
      <stop offset="1" stop-color="#FFF4ED"/>
    </linearGradient>
    <filter id="shadow" x="-20%" y="-20%" width="140%" height="140%">
      <feDropShadow dx="0" dy="12" stdDeviation="12" flood-color="#1D366F" flood-opacity=".14"/>
    </filter>
  </defs>
  <rect width="390" height="760" rx="34" fill="url(#bg)"/>
  <g opacity=".55">
    <path d="M0 96h390M0 160h390M0 224h390M0 288h390M0 352h390M0 416h390M0 480h390M0 544h390M0 608h390M0 672h390" stroke="#DDE7F1"/>
    <path d="M66 0v760M132 0v760M198 0v760M264 0v760M330 0v760" stroke="#DDE7F1"/>
  </g>
  <g transform="translate(28 34)">
    <text x="0" y="12" font-family="Lexend, Arial, sans-serif" font-size="15" font-weight="800" fill="#101828">9:30</text>
    <circle cx="166" cy="8" r="8" fill="#111827"/>
    <rect x="308" y="1" width="28" height="16" rx="8" fill="#1D366F"/>
  </g>
  <g transform="translate(28 88)">
    <text x="0" y="0" font-family="Lexend, Arial, sans-serif" font-size="25" font-weight="900" fill="#1D366F">Encaminhamento</text>
    <text x="0" y="28" font-family="Lexend, Arial, sans-serif" font-size="13" font-weight="600" fill="#52667D">Caso priorizado com rota rastreavel.</text>
  </g>
  <g transform="translate(28 154)" filter="url(#shadow)">
    <rect width="334" height="132" rx="20" fill="#1D366F"/>
    <circle cx="58" cy="66" r="34" fill="#4DAA86"/>
    <path d="m42 66 12 12 24-30" fill="none" stroke="#FFFFFF" stroke-width="6" stroke-linecap="round" stroke-linejoin="round"/>
    <text x="112" y="54" font-family="Lexend, Arial, sans-serif" font-size="17" font-weight="900" fill="#FFFFFF">Encaminhado</text>
    <text x="112" y="80" font-family="Lexend, Arial, sans-serif" font-size="12" font-weight="650" fill="#D9F4FB">Protocolo DA-2025-024</text>
  </g>
  <g transform="translate(28 318)">
    <rect width="334" height="92" rx="18" fill="#FFFFFF" stroke="#DDE7F1" filter="url(#shadow)"/>
    <text x="22" y="31" font-family="Lexend, Arial, sans-serif" font-size="12" font-weight="800" fill="#B7561F">DESTINO</text>
    <text x="22" y="57" font-family="Lexend, Arial, sans-serif" font-size="16" font-weight="900" fill="#1D366F">Unidade de referencia</text>
    <text x="22" y="76" font-family="Lexend, Arial, sans-serif" font-size="11" font-weight="650" fill="#52667D">Dermatologia - fila regulada</text>
    <path d="M286 31c18 10 18 36 0 46-18-10-18-36 0-46z" fill="#FCE7DA"/>
    <circle cx="286" cy="54" r="7" fill="#D06A32"/>
  </g>
  <g transform="translate(28 444)">
    <rect width="334" height="120" rx="18" fill="#FFFFFF" stroke="#DDE7F1"/>
    <text x="22" y="34" font-family="Lexend, Arial, sans-serif" font-size="14" font-weight="900" fill="#1D366F">Pacote enviado</text>
    <g transform="translate(22 56)">
      <circle cx="10" cy="10" r="10" fill="#4DAA86"/>
      <path d="m5 10 4 4 7-9" fill="none" stroke="#FFFFFF" stroke-width="2.5" stroke-linecap="round" stroke-linejoin="round"/>
      <text x="30" y="14" font-family="Lexend, Arial, sans-serif" font-size="12" font-weight="700" fill="#52667D">Dados cadastrais</text>
    </g>
    <g transform="translate(22 84)">
      <circle cx="10" cy="10" r="10" fill="#4DAA86"/>
      <path d="m5 10 4 4 7-9" fill="none" stroke="#FFFFFF" stroke-width="2.5" stroke-linecap="round" stroke-linejoin="round"/>
      <text x="30" y="14" font-family="Lexend, Arial, sans-serif" font-size="12" font-weight="700" fill="#52667D">Anamnese e imagens</text>
    </g>
  </g>
  <g transform="translate(28 596)" filter="url(#shadow)">
    <rect width="334" height="48" rx="24" fill="#D06A32"/>
    <text x="98" y="31" font-family="Lexend, Arial, sans-serif" font-size="13" font-weight="900" fill="#FFFFFF">Gerar comprovante</text>
    <path d="M244 24h18m-7-7 7 7-7 7" stroke="#FFFFFF" stroke-width="2" stroke-linecap="round" stroke-linejoin="round"/>
  </g>
  <g transform="translate(62 676)">
    <rect width="266" height="14" rx="7" fill="#DDE7F1"/>
    <rect width="266" height="14" rx="7" fill="#D06A32"/>
    <text x="92" y="42" font-family="Lexend, Arial, sans-serif" font-size="12" font-weight="800" fill="#52667D">Etapa 5 de 5</text>
  </g>
</svg>
